<svg id="arrow-right" viewBox="0 0 20 30" xmlns="http://www.w3.org/2000/svg">
<path d="M0.692841 29.4071C0.230947 29.0119 0 28.5439 0 28.0032C0 27.4635 0.230947 26.996 0.692841 26.6008L14.2263 15.0198L0.646651 3.39921C0.21555 3.0303 0 2.56917 0 2.01581C0 1.46245 0.230947 0.988142 0.692841 0.592885C1.15473 0.197628 1.70162 0 2.33349 0C2.96413 0 3.51039 0.197628 3.97229 0.592885L19.4919 13.913C19.6767 14.0711 19.8079 14.2424 19.8855 14.4269C19.9618 14.6113 20 14.809 20 15.0198C20 15.2306 19.9618 15.4282 19.8855 15.6126C19.8079 15.7971 19.6767 15.9684 19.4919 16.1265L3.9261 29.4466C3.495 29.8155 2.96413 30 2.33349 30C1.70162 30 1.15473 29.8024 0.692841 29.4071Z" fill="white"/>
</svg>
