<svg id="chat-person-icon" viewBox="0 0 24 24" xmlns="http://www.w3.org/2000/svg">
<circle cx="12" cy="12" r="12" fill="#4F4F4F"/>
<path d="M10.0531 11C9.52812 11 9.09062 10.8031 8.74062 10.4094C8.39062 10.0156 8.25208 9.55625 8.325 9.03125L8.60938 6.8875C8.72604 6.05625 9.10521 5.36733 9.74688 4.82075C10.3885 4.27358 11.1396 4 12 4C12.8604 4 13.6115 4.27358 14.2531 4.82075C14.8948 5.36733 15.274 6.05625 15.3906 6.8875L15.675 9.03125C15.7479 9.55625 15.6094 10.0156 15.2594 10.4094C14.9094 10.8031 14.4719 11 13.9469 11H10.0531ZM5 18V15.55C5 15.0542 5.12775 14.5983 5.38325 14.1824C5.63817 13.767 5.97708 13.45 6.4 13.2313C7.30417 12.7792 8.22292 12.44 9.15625 12.2136C10.0896 11.9879 11.0375 11.875 12 11.875C12.9625 11.875 13.9104 11.9879 14.8438 12.2136C15.7771 12.44 16.6958 12.7792 17.6 13.2313C18.0229 13.45 18.3618 13.767 18.6168 14.1824C18.8723 14.5983 19 15.0542 19 15.55V18H5Z" fill="white"/>
</svg>
