<svg id="exit-game" viewBox="0 0 20 21" xmlns="http://www.w3.org/2000/svg">
<path d="M14 2.31244H17C17.5304 2.31244 18.0391 2.52315 18.4142 2.89823C18.7893 3.2733 19 3.78201 19 4.31244V5.31244M14 18.3124H17C17.5304 18.3124 18.0391 18.1017 18.4142 17.7267C18.7893 17.3516 19 16.8429 19 16.3124V15.3124M7.001 10.3124H7M14 10.3124H19M19 10.3124L17 8.31244M19 10.3124L17 12.3124M2.425 17.7404L8.425 19.5404C8.72368 19.6301 9.03919 19.6487 9.34633 19.5947C9.65347 19.5407 9.94372 19.4156 10.1939 19.2294C10.4441 19.0433 10.6473 18.8012 10.7872 18.5225C10.9272 18.2438 11.0001 17.9363 11 17.6244V3.00044C11.0001 2.68859 10.9272 2.38105 10.7872 2.10237C10.6473 1.8237 10.4441 1.58161 10.1939 1.39545C9.94372 1.20929 9.65347 1.08422 9.34633 1.03021C9.03919 0.976213 8.72368 0.994782 8.425 1.08444L2.425 2.88444C2.01302 3.0081 1.65189 3.2613 1.39519 3.60644C1.13849 3.95159 0.999906 4.3703 1 4.80044V15.8244C0.999906 16.2546 1.13849 16.6733 1.39519 17.0184C1.65189 17.3636 2.01302 17.6168 2.425 17.7404Z" stroke="black" stroke-width="2" stroke-linecap="round" stroke-linejoin="round"/>
</svg>
